<svg width="396" height="59" viewBox="0 0 396 59" fill="none" xmlns="http://www.w3.org/2000/svg">
<path d="M70.8031 3.80595C72.2751 3.80595 73.6091 3.92095 74.8051 4.15095C76.0471 4.33495 77.1281 4.58795 78.0481 4.90996L84.5341 3.59896V17.675C81.2221 17.583 78.5541 16.64 76.5301 14.846C74.5061 13.052 73.3331 10.591 73.0111 7.46296C72.0911 7.27896 71.0101 7.18695 69.7681 7.18695C69.3081 7.18695 68.9171 7.20995 68.5951 7.25595C68.3191 7.30195 68.0661 7.34795 67.8361 7.39396L67.1461 7.53195C66.9621 7.89996 66.8011 8.33696 66.6631 8.84295C66.5711 9.25695 66.4791 9.76295 66.3871 10.361C66.2951 10.913 66.2491 11.534 66.2491 12.224C66.2491 14.662 66.7781 16.456 67.8361 17.606C68.9401 18.756 70.7111 19.722 73.1491 20.504C74.5751 21.01 76.0471 21.654 77.5651 22.436C79.0831 23.172 80.4631 24.092 81.7051 25.196C82.9931 26.3 84.0281 27.611 84.8101 29.129C85.6381 30.601 86.0521 32.28 86.0521 34.166C86.0521 38.95 84.5801 42.469 81.6361 44.723C78.6921 46.931 74.5751 48.035 69.2851 48.035C67.0311 48.035 65.2371 47.897 63.9031 47.621C62.5691 47.391 61.5341 47.161 60.7981 46.931L55.0021 48.035V32.579C56.7961 32.625 58.3831 32.97 59.7631 33.614C61.1431 34.212 62.3161 35.04 63.2821 36.098C64.2481 37.156 65.0071 38.398 65.5591 39.824C66.1111 41.25 66.4331 42.814 66.5251 44.516C66.8931 44.562 67.2381 44.585 67.5601 44.585H68.7331C69.1931 44.585 69.6761 44.585 70.1821 44.585C70.7341 44.539 71.2401 44.493 71.7001 44.447C72.2061 44.401 72.7351 44.355 73.2871 44.309C73.4251 43.987 73.5631 43.573 73.7011 43.067C73.7931 42.653 73.8851 42.124 73.9771 41.48C74.0691 40.836 74.1151 40.054 74.1151 39.134C74.1151 37.11 73.6321 35.5 72.6661 34.304C71.7001 33.062 70.4811 32.004 69.0091 31.13C67.5371 30.256 65.9501 29.451 64.2481 28.715C62.5921 27.979 61.0281 27.105 59.5561 26.093C58.0841 25.081 56.8651 23.816 55.8991 22.298C54.9331 20.78 54.4501 18.802 54.4501 16.364C54.4501 14.57 54.7261 12.914 55.2781 11.396C55.8301 9.87795 56.7271 8.56695 57.9691 7.46296C59.2571 6.31295 60.9361 5.41595 63.0061 4.77195C65.1221 4.12795 67.7211 3.80595 70.8031 3.80595Z" fill="black"/>
<path d="M109.011 30.578H105.837V43.481H109.908V47H90.8638V43.481H94.9348V8.01496H90.8638V4.56496H94.9348L105.837 2.56395V26.852H110.598C112.76 26.852 114.278 26.599 115.152 26.093C116.072 25.541 116.532 24.414 116.532 22.712V19.538H111.012V16.019H127.434V19.538H120.879V23.609C120.879 25.495 120.373 27.013 119.361 28.163L126.123 43.55H126.951C127.319 43.55 127.687 43.527 128.055 43.481C128.469 43.435 128.906 43.389 129.366 43.343V46.655C128.814 46.793 128.147 46.908 127.365 47C126.721 47.092 125.893 47.161 124.881 47.207C123.869 47.253 122.673 47.276 121.293 47.276C120.235 47.276 119.338 47.184 118.602 47C117.866 46.816 117.245 46.563 116.739 46.241C116.233 45.873 115.796 45.459 115.428 44.999C115.106 44.493 114.807 43.918 114.531 43.274L109.011 30.578Z" fill="black"/>
<path d="M130.426 16.571H134.497L145.399 14.915V43.481H149.47V47H130.426V43.481H134.497V20.021H130.426V16.571ZM134.497 5.80696C134.497 3.87495 134.911 2.44895 135.739 1.52895C136.567 0.562955 137.97 0.0799561 139.948 0.0799561C142.018 0.0799561 143.444 0.562955 144.226 1.52895C145.008 2.44895 145.399 3.87495 145.399 5.80696C145.399 7.78496 144.962 9.23395 144.088 10.154C143.26 11.028 141.88 11.465 139.948 11.465C137.97 11.465 136.567 11.028 135.739 10.154C134.911 9.23395 134.497 7.78496 134.497 5.80696Z" fill="black"/>
<path d="M170.043 4.56496H174.114L185.016 2.56395V43.55H185.913C186.327 43.55 186.741 43.527 187.155 43.481L188.673 43.343V46.655C187.845 46.793 187.04 46.908 186.258 47C185.614 47.092 184.924 47.161 184.188 47.207C183.452 47.253 182.854 47.276 182.394 47.276C180.14 47.276 178.438 46.862 177.288 46.034C176.138 45.206 175.31 44.309 174.804 43.343C173.47 44.677 171.952 45.712 170.25 46.448C168.594 47.184 166.846 47.552 165.006 47.552C163.12 47.552 161.441 47.276 159.969 46.724C158.497 46.126 157.255 45.206 156.243 43.964C155.277 42.676 154.541 41.02 154.035 38.996C153.529 36.926 153.276 34.442 153.276 31.544C153.276 28.6 153.552 26.116 154.104 24.092C154.656 22.022 155.576 20.366 156.864 19.124C158.152 17.836 159.808 16.916 161.832 16.364C163.856 15.812 166.363 15.536 169.353 15.536C170.181 15.536 170.986 15.582 171.768 15.674L174.114 15.95V8.01496H170.043V4.56496ZM165.834 43.826C167.352 43.826 168.824 43.343 170.25 42.377C171.722 41.411 173.01 40.192 174.114 38.72V19.331C173.332 19.101 172.504 18.94 171.63 18.848C170.802 18.71 170.043 18.641 169.353 18.641C168.755 18.641 168.249 18.664 167.835 18.71C167.421 18.756 167.053 18.802 166.731 18.848C166.363 18.94 166.064 19.009 165.834 19.055C165.604 20.159 165.397 21.355 165.213 22.643C165.029 23.747 164.868 25.058 164.73 26.576C164.638 28.094 164.592 29.75 164.592 31.544C164.592 33.752 164.638 35.638 164.73 37.202C164.868 38.72 165.029 39.985 165.213 40.997C165.397 42.193 165.604 43.136 165.834 43.826Z" fill="black"/>
<path d="M190.768 4.56496H194.839L205.741 2.56395V43.55C207.535 43.55 208.662 43.09 209.122 42.17C209.628 41.25 209.881 39.686 209.881 37.478H213.4C213.4 38.904 213.331 40.215 213.193 41.411C213.055 42.607 212.641 43.642 211.951 44.516C211.307 45.39 210.295 46.08 208.915 46.586C207.535 47.046 205.603 47.276 203.119 47.276C201.417 47.276 200.014 47.023 198.91 46.517C197.852 46.011 197.024 45.413 196.426 44.723C195.828 43.987 195.414 43.251 195.184 42.515C194.954 41.733 194.839 41.089 194.839 40.583V8.01496H190.768V4.56496Z" fill="black"/>
<path d="M245.324 43.55H246.221C246.635 43.55 247.049 43.527 247.463 43.481L248.981 43.343V46.655C248.153 46.793 247.348 46.908 246.566 47C245.922 47.092 245.232 47.161 244.496 47.207C243.76 47.253 243.162 47.276 242.702 47.276C240.448 47.276 238.746 46.862 237.596 46.034C236.446 45.206 235.618 44.309 235.112 43.343C234.1 44.631 232.927 45.666 231.593 46.448C230.305 47.184 228.81 47.552 227.108 47.552C223.98 47.552 221.657 46.977 220.139 45.827C218.621 44.631 217.862 42.584 217.862 39.686C217.862 38.674 217.862 37.708 217.862 36.788C217.908 35.868 217.977 35.063 218.069 34.373C218.161 33.545 218.253 32.809 218.345 32.165L234.353 28.232C234.307 26.898 234.261 25.679 234.215 24.575C234.169 23.425 234.123 22.459 234.077 21.677C233.985 20.757 233.916 19.929 233.87 19.193C233.732 19.147 233.525 19.101 233.249 19.055C233.019 19.009 232.674 18.963 232.214 18.917C231.754 18.871 231.202 18.848 230.558 18.848C230.144 18.848 229.753 18.871 229.385 18.917C229.017 18.917 228.649 18.94 228.281 18.986C228.143 19.63 227.913 20.412 227.591 21.332C227.269 22.206 226.763 23.057 226.073 23.885C225.383 24.667 224.463 25.357 223.313 25.955C222.209 26.507 220.783 26.783 219.035 26.783V16.364C220.507 16.226 222.002 16.088 223.52 15.95C224.854 15.858 226.28 15.766 227.798 15.674C229.316 15.582 230.788 15.536 232.214 15.536C235.204 15.536 237.55 15.789 239.252 16.295C241 16.801 242.311 17.675 243.185 18.917C244.105 20.159 244.68 21.815 244.91 23.885C245.186 25.955 245.324 28.531 245.324 31.613V43.55ZM233.387 5.80696C233.387 4.05895 233.755 2.77095 234.491 1.94295C235.273 1.06895 236.538 0.631953 238.286 0.631953C240.172 0.631953 241.46 1.06895 242.15 1.94295C242.84 2.77095 243.185 4.05895 243.185 5.80696C243.185 7.55496 242.794 8.84296 242.012 9.67096C241.276 10.499 240.034 10.913 238.286 10.913C236.538 10.913 235.273 10.499 234.491 9.67096C233.755 8.84296 233.387 7.55496 233.387 5.80696ZM219.242 5.80696C219.242 4.05895 219.61 2.77095 220.346 1.94295C221.128 1.06895 222.393 0.631953 224.141 0.631953C226.027 0.631953 227.315 1.06895 228.005 1.94295C228.695 2.77095 229.04 4.05895 229.04 5.80696C229.04 7.55496 228.649 8.84296 227.867 9.67096C227.131 10.499 225.889 10.913 224.141 10.913C222.393 10.913 221.128 10.499 220.346 9.67096C219.61 8.84296 219.242 7.55496 219.242 5.80696ZM229.316 43.826C230.236 43.596 231.11 43.021 231.938 42.101C232.812 41.135 233.64 39.985 234.422 38.651V31.337L229.178 32.786C229.086 33.522 229.017 34.281 228.971 35.063C228.925 35.799 228.902 36.535 228.902 37.271C228.902 38.191 228.902 39.042 228.902 39.824C228.948 40.606 229.017 41.296 229.109 41.894C229.155 42.584 229.224 43.228 229.316 43.826Z" fill="black"/>
<path d="M252.119 17.261H256.19L266.609 15.26V20.09C266.701 19.952 266.954 19.63 267.368 19.124C267.782 18.618 268.403 18.112 269.231 17.606C270.059 17.054 271.14 16.571 272.474 16.157C273.808 15.743 275.441 15.536 277.373 15.536C278.431 15.536 279.489 15.628 280.547 15.812C281.651 15.996 282.64 16.341 283.514 16.847C284.434 17.307 285.17 17.951 285.722 18.779C286.274 19.607 286.55 20.688 286.55 22.022V43.481H290.621V47H275.648V19.814C275.556 19.814 275.418 19.791 275.234 19.745C274.866 19.653 274.36 19.607 273.716 19.607C272.75 19.607 271.876 19.814 271.094 20.228C270.358 20.596 269.714 21.033 269.162 21.539C268.61 22.045 268.15 22.574 267.782 23.126C267.46 23.632 267.23 24.023 267.092 24.299V43.481H271.163V47H252.119V43.481H256.19V20.711H252.119V17.261Z" fill="black"/>
<path d="M317.637 54.866H320.397C321.915 54.866 322.858 54.705 323.226 54.383C323.64 54.107 323.847 53.601 323.847 52.865V51.83H306.114C303.906 51.83 302.043 51.646 300.525 51.278C299.007 50.956 297.788 50.427 296.868 49.691C295.994 49.001 295.35 48.104 294.936 47C294.568 45.85 294.384 44.493 294.384 42.929C294.384 41.733 294.545 40.698 294.867 39.824C295.189 38.95 295.58 38.214 296.04 37.616C296.546 37.018 297.075 36.535 297.627 36.167C298.225 35.799 298.777 35.523 299.283 35.339C297.811 34.511 296.753 33.384 296.109 31.958C295.511 30.486 295.212 28.646 295.212 26.438C295.212 24.46 295.465 22.781 295.971 21.401C296.523 19.975 297.397 18.848 298.593 18.02C299.789 17.146 301.353 16.525 303.285 16.157C305.217 15.743 307.586 15.536 310.392 15.536H318.672C319.822 15.536 320.719 15.444 321.363 15.26C322.053 15.076 322.559 14.8 322.881 14.432C323.203 14.018 323.387 13.535 323.433 12.983C323.525 12.385 323.571 11.672 323.571 10.844H327.297C327.297 13.328 326.906 15.122 326.124 16.226C325.342 17.33 324.215 18.089 322.743 18.503C324.629 20.205 325.572 22.85 325.572 26.438C325.572 28.462 325.296 30.164 324.744 31.544C324.238 32.924 323.387 34.051 322.191 34.925C320.995 35.753 319.431 36.374 317.499 36.788C315.567 37.156 313.198 37.34 310.392 37.34C307.402 37.34 304.918 37.133 302.94 36.719C302.388 36.857 301.813 37.064 301.215 37.34C300.663 37.57 300.134 37.892 299.628 38.306C299.122 38.674 298.708 39.111 298.386 39.617C298.064 40.123 297.903 40.698 297.903 41.342H317.913C321.731 41.342 324.422 42.055 325.986 43.481C327.596 44.861 328.401 47.023 328.401 49.967C328.401 51.439 328.286 52.704 328.056 53.762C327.826 54.82 327.412 55.694 326.814 56.384C326.262 57.074 325.457 57.58 324.399 57.902C323.341 58.27 321.984 58.454 320.328 58.454H317.637V54.866ZM306.528 26.438C306.528 27.542 306.574 28.554 306.666 29.474C306.758 30.394 306.873 31.176 307.011 31.82C307.149 32.602 307.31 33.315 307.494 33.959C307.724 34.005 307.977 34.051 308.253 34.097C308.483 34.143 308.759 34.189 309.081 34.235C309.449 34.235 309.863 34.235 310.323 34.235C310.783 34.235 311.197 34.235 311.565 34.235C311.933 34.189 312.232 34.143 312.462 34.097C312.738 34.051 312.991 34.005 313.221 33.959C313.359 33.315 313.52 32.602 313.704 31.82C313.796 31.176 313.888 30.394 313.98 29.474C314.118 28.554 314.187 27.542 314.187 26.438C314.187 25.38 314.118 24.391 313.98 23.471C313.888 22.505 313.796 21.7 313.704 21.056C313.52 20.274 313.359 19.561 313.221 18.917L312.393 18.779C312.163 18.733 311.864 18.71 311.496 18.71C311.128 18.664 310.737 18.641 310.323 18.641C309.863 18.641 309.449 18.664 309.081 18.71C308.759 18.71 308.483 18.733 308.253 18.779C307.977 18.825 307.724 18.871 307.494 18.917C307.31 19.561 307.149 20.274 307.011 21.056C306.873 21.7 306.758 22.505 306.666 23.471C306.574 24.391 306.528 25.38 306.528 26.438Z" fill="black"/>
<path d="M347.934 4.56496H352.005L362.907 2.56395V43.55H363.804C364.218 43.55 364.632 43.527 365.046 43.481L366.564 43.343V46.655C365.736 46.793 364.931 46.908 364.149 47C363.505 47.092 362.815 47.161 362.079 47.207C361.343 47.253 360.745 47.276 360.285 47.276C358.031 47.276 356.329 46.862 355.179 46.034C354.029 45.206 353.201 44.309 352.695 43.343C351.361 44.677 349.843 45.712 348.141 46.448C346.485 47.184 344.737 47.552 342.897 47.552C341.011 47.552 339.332 47.276 337.86 46.724C336.388 46.126 335.146 45.206 334.134 43.964C333.168 42.676 332.432 41.02 331.926 38.996C331.42 36.926 331.167 34.442 331.167 31.544C331.167 28.6 331.443 26.116 331.995 24.092C332.547 22.022 333.467 20.366 334.755 19.124C336.043 17.836 337.699 16.916 339.723 16.364C341.747 15.812 344.254 15.536 347.244 15.536C348.072 15.536 348.877 15.582 349.659 15.674L352.005 15.95V8.01496H347.934V4.56496ZM343.725 43.826C345.243 43.826 346.715 43.343 348.141 42.377C349.613 41.411 350.901 40.192 352.005 38.72V19.331C351.223 19.101 350.395 18.94 349.521 18.848C348.693 18.71 347.934 18.641 347.244 18.641C346.646 18.641 346.14 18.664 345.726 18.71C345.312 18.756 344.944 18.802 344.622 18.848C344.254 18.94 343.955 19.009 343.725 19.055C343.495 20.159 343.288 21.355 343.104 22.643C342.92 23.747 342.759 25.058 342.621 26.576C342.529 28.094 342.483 29.75 342.483 31.544C342.483 33.752 342.529 35.638 342.621 37.202C342.759 38.72 342.92 39.985 343.104 40.997C343.288 42.193 343.495 43.136 343.725 43.826Z" fill="black"/>
<path d="M10.8041 21.492L10.4521 20.04C10.4521 19.688 10.7601 19.1453 11.3761 18.412C11.9921 17.6493 12.5055 17.268 12.9161 17.268C13.2388 17.268 13.4001 17.5173 13.4001 18.016C13.4001 19.9813 12.7255 22.1373 11.3761 24.484C10.0268 26.8013 8.67747 28.708 7.32814 30.204C5.97881 31.7 4.65881 32.9613 3.36814 33.988C2.10681 34.9853 1.15347 35.484 0.508141 35.484C0.332141 35.484 0.244141 35.396 0.244141 35.22C0.244141 35.044 0.273474 34.9266 0.332141 34.868C0.390807 34.78 0.449474 34.7066 0.508141 34.648C0.596141 34.5893 0.698807 34.5013 0.816141 34.384C0.933474 34.2666 1.03614 34.032 1.12414 33.68C1.24147 33.2986 1.34414 32.8 1.43214 32.184C1.69614 30.7173 1.85747 28.488 1.91614 25.496C1.91614 24.968 1.82814 24.572 1.65214 24.308C1.47614 24.044 1.38814 23.3693 1.38814 22.284C1.38814 21.1693 1.52014 20.3333 1.78414 19.776C2.07747 19.2186 2.66414 18.94 3.54414 18.94C3.95481 18.94 4.23347 19.072 4.38014 19.336C3.35347 27.52 2.79614 32.14 2.70814 33.196C2.73747 33.1666 3.03081 32.9173 3.58814 32.448C4.14547 31.9786 4.68814 31.4653 5.21614 30.908C5.77347 30.3506 6.41881 29.6466 7.15214 28.796C8.70681 26.948 9.89481 24.6893 10.7161 22.02C10.7748 21.7853 10.8041 21.6093 10.8041 21.492Z" fill="black"/>
<path d="M27.948 31.48C27.596 31.832 27.3027 32.096 27.068 32.272C26.8627 32.448 26.6133 32.668 26.32 32.932C26.056 33.1666 25.8213 33.3573 25.616 33.504C25.4107 33.6506 25.1613 33.8266 24.868 34.032C24.5747 34.2373 24.3107 34.384 24.076 34.472C23.4893 34.7653 23.0493 34.912 22.756 34.912C22.14 34.912 21.7733 34.5453 21.656 33.812C21.656 32.58 22.14 30.3066 23.108 26.992C19.1773 32.4186 16.3613 35.132 14.66 35.132C13.956 35.132 13.604 34.5306 13.604 33.328C13.604 32.1253 14 30.38 14.792 28.092C15.6133 25.7746 16.6107 23.692 17.784 21.844C18.9573 19.9666 19.984 19.028 20.864 19.028H20.996L21.48 18.676C21.744 18.3826 22.1253 18.236 22.624 18.236C23.1227 18.236 23.768 18.3533 24.56 18.588C25.352 18.8226 25.792 18.94 25.88 18.94C25.9973 18.94 26.144 18.8226 26.32 18.588C26.5253 18.3533 26.76 18.236 27.024 18.236C27.7573 18.236 28.124 18.5586 28.124 19.204C28.124 19.644 27.9773 20.2013 27.684 20.876C27.3907 21.5213 27.2293 21.888 27.2 21.976C27.1707 22.0346 27.024 22.1226 26.76 22.24C26.5253 22.3573 26.3933 22.46 26.364 22.548C25.7187 24.3666 25.1467 26.3173 24.648 28.4C24.1493 30.4533 23.9 31.788 23.9 32.404C23.9 32.9906 24.1053 33.284 24.516 33.284C24.9267 33.284 25.4253 33.0346 26.012 32.536C26.628 32.0373 27.156 31.5386 27.596 31.04C28.036 30.5413 28.2707 30.292 28.3 30.292C28.3587 30.292 28.388 30.4386 28.388 30.732C28.388 30.996 28.2413 31.2453 27.948 31.48ZM25.044 19.776L23.064 19.6C22.6533 19.6 22.2133 19.6586 21.744 19.776C21.0107 19.9813 19.808 21.7266 18.136 25.012C16.464 28.268 15.628 30.7026 15.628 32.316C15.628 32.8146 15.7747 33.064 16.068 33.064C16.684 33.064 17.7693 32.1693 19.324 30.38C20.908 28.5906 22.008 27.212 22.624 26.244C23.24 25.276 23.856 24.1173 24.472 22.768C25.088 21.3893 25.396 20.5533 25.396 20.26C25.396 19.9373 25.3227 19.776 25.176 19.776H25.044ZM29.268 10.932C29.268 11.2546 29.18 11.724 29.004 12.34C28.828 12.956 28.74 13.2933 28.74 13.352C28.74 13.7626 28.344 14.0706 27.552 14.276C27.024 14.276 26.76 13.9533 26.76 13.308C26.76 12.6333 27.0093 12.0466 27.508 11.548C28.0067 11.0493 28.5053 10.8 29.004 10.8C29.1213 10.8 29.2093 10.844 29.268 10.932ZM23.636 10.932C23.636 11.2546 23.548 11.724 23.372 12.34C23.196 12.956 23.108 13.2933 23.108 13.352C23.108 13.7626 22.712 14.0706 21.92 14.276C21.4213 14.276 21.172 13.9533 21.172 13.308C21.172 12.6333 21.4213 12.0466 21.92 11.548C22.4187 11.0493 22.9173 10.8 23.416 10.8C23.504 10.8 23.5773 10.844 23.636 10.932Z" fill="black"/>
<path d="M35.1685 12.956L35.0365 12.34C35.0365 12.252 35.0805 12.076 35.1685 11.812C35.7551 9.96396 36.2978 8.73196 36.7965 8.11596C37.2951 7.49996 38.0285 7.19196 38.9965 7.19196C39.4071 7.19196 39.6271 7.32396 39.6565 7.58796C38.0431 10.932 36.4005 14.98 34.7285 19.732C33.0565 24.4546 31.8245 28.5906 31.0325 32.14C31.0031 32.228 30.9885 32.3453 30.9885 32.492C30.9885 32.844 31.1351 33.02 31.4285 33.02C31.6045 33.02 32.0738 32.8 32.8365 32.36C33.6285 31.92 34.1125 31.7 34.2885 31.7C34.4938 31.7 34.6405 31.7586 34.7285 31.876C34.7285 32.228 33.9951 32.888 32.5285 33.856C31.0618 34.7946 30.0351 35.264 29.4485 35.264C28.8618 35.264 28.5685 35 28.5685 34.472C28.5685 34.1786 28.7885 33.4306 29.2285 32.228C29.6685 31.0253 30.2111 29.3973 30.8565 27.344C31.5311 25.2906 32.2938 22.856 33.1445 20.04C33.9951 17.1946 34.5378 15.376 34.7725 14.584C35.0365 13.7626 35.1685 13.22 35.1685 12.956Z" fill="black"/>
<path d="M41.1397 23.736L41.0077 23.076C41.0077 22.8706 41.0371 22.6946 41.0957 22.548C41.5651 20.7293 42.0344 19.512 42.5037 18.896C42.9731 18.2506 43.6771 17.928 44.6157 17.928C44.9971 17.928 45.2317 18.06 45.3197 18.324C43.2371 23.3106 41.2571 29.9546 39.3797 38.256C38.6757 41.3066 37.6637 43.4626 36.3437 44.724C35.0531 46.0146 33.6891 46.66 32.2517 46.66C29.7584 46.66 28.5117 45.3106 28.5117 42.612C28.5117 41.908 28.6144 41.2626 28.8197 40.676C28.9957 40.0893 29.1717 39.796 29.3477 39.796C29.4651 39.796 29.5384 39.884 29.5677 40.06V40.5C29.5677 42.084 29.8611 43.3746 30.4477 44.372C31.0344 45.3693 31.7091 45.868 32.4717 45.868C34.0557 45.868 35.3171 44.3866 36.2557 41.424C37.9864 35.88 39.5851 30.2333 41.0517 24.484C41.1104 24.2493 41.1397 24 41.1397 23.736ZM46.8597 10.448C47.3584 10.448 47.6077 10.58 47.6077 10.844C47.6077 11.108 47.3877 11.372 46.9477 11.636C46.5077 11.8706 46.1557 12.1933 45.8917 12.604C45.6277 12.9853 45.4371 13.352 45.3197 13.704C45.0264 14.6426 44.6304 15.112 44.1317 15.112C43.9264 15.112 43.7357 14.892 43.5597 14.452C43.3837 13.9826 43.2811 13.6013 43.2517 13.308C43.2517 12.692 43.7357 12.0613 44.7037 11.416C45.6717 10.7706 46.3904 10.448 46.8597 10.448Z" fill="black"/>
<path d="M369.788 31.7C369.759 31.8466 369.685 32.228 369.568 32.844C369.451 33.4306 369.333 33.9146 369.216 34.296C368.981 35.1466 368.483 35.572 367.72 35.572C367.221 35.572 366.972 35 366.972 33.856C366.972 33.3573 367.309 32.8586 367.984 32.36C368.688 31.8613 369.143 31.612 369.348 31.612C369.583 31.612 369.729 31.6413 369.788 31.7Z" fill="black"/>
<path d="M385.499 19.908C385.441 20.4946 385.059 21.3306 384.355 22.416C383.651 23.5013 383.109 24.044 382.727 24.044C382.61 24.044 382.551 23.9413 382.551 23.736C382.551 23.5013 382.713 22.988 383.035 22.196C383.358 21.3746 383.519 20.8466 383.519 20.612C383.519 20.172 383.255 19.952 382.727 19.952C382.639 19.952 382.155 20.0253 381.275 20.172C380.542 20.348 379.574 20.8173 378.371 21.58C377.198 22.3426 376.611 23.1786 376.611 24.088C376.611 24.4106 376.685 24.704 376.831 24.968C377.213 25.7306 377.873 26.376 378.811 26.904C379.779 27.432 380.601 27.9306 381.275 28.4C381.979 28.8693 382.331 29.4853 382.331 30.248C382.331 31.5386 381.334 32.7853 379.339 33.988C377.374 35.1613 375.687 35.748 374.279 35.748C374.045 35.748 373.854 35.6453 373.707 35.44C373.561 35.264 373.487 35.0733 373.487 34.868C373.487 34.516 373.649 34.34 373.971 34.34C374.939 34.34 376.289 34.0466 378.019 33.46C379.779 32.844 380.659 32.184 380.659 31.48C380.659 30.7466 379.618 29.7493 377.535 28.488C376.743 28.0186 376.01 27.4613 375.335 26.816C374.69 26.1413 374.367 25.5253 374.367 24.968C374.367 24.4106 374.514 23.9413 374.807 23.56C375.13 23.1786 375.438 22.8413 375.731 22.548C376.025 22.2253 376.303 21.9466 376.567 21.712C376.831 21.4773 377.125 21.2426 377.447 21.008C377.799 20.7733 378.107 20.568 378.371 20.392C378.635 20.216 378.943 20.04 379.295 19.864L380.131 19.424C380.747 19.1306 381.187 18.94 381.451 18.852C381.715 18.764 381.994 18.6613 382.287 18.544C382.962 18.28 383.505 18.148 383.915 18.148C384.971 18.148 385.499 18.7346 385.499 19.908Z" fill="black"/>
<path d="M390.027 26.64L388.443 26.596C387.475 29.06 386.991 30.9373 386.991 32.228C386.991 33.5186 387.431 34.164 388.311 34.164C389.338 34.164 390.775 33.0053 392.623 30.688C393.239 29.896 393.606 29.5 393.723 29.5C393.928 29.5 394.031 29.6173 394.031 29.852C394.031 30.6733 393.224 31.8173 391.611 33.284C389.998 34.7213 388.78 35.44 387.959 35.44C387.138 35.44 386.419 35.22 385.803 34.78C385.216 34.3106 384.923 33.548 384.923 32.492C384.923 31.524 385.158 30.292 385.627 28.796C386.126 27.2706 386.39 26.3906 386.419 26.156C385.979 26.0386 385.759 25.8186 385.759 25.496C385.759 25.144 386.008 24.968 386.507 24.968H386.815C387.988 22.6506 388.663 21.316 388.839 20.964C389.66 19.4093 391.23 18.632 393.547 18.632C394.544 18.632 395.234 19.5266 395.615 21.316C395.791 22.2253 395.879 22.988 395.879 23.604C395.879 24.1906 395.659 24.7186 395.219 25.188C394.779 25.628 394.207 25.936 393.503 26.112C392.271 26.464 391.112 26.64 390.027 26.64ZM388.839 25.364L390.599 25.452C391.802 25.452 392.667 25.32 393.195 25.056C393.723 24.792 393.987 24.2786 393.987 23.516C394.016 22.724 393.958 22.064 393.811 21.536C393.547 20.5973 393.18 20.128 392.711 20.128C392.124 20.128 391.42 20.7586 390.599 22.02C389.807 23.2813 389.22 24.396 388.839 25.364Z" fill="black"/>
</svg>
